#!OML:ASF \\Waltz\H\Terrain\Patient Classification 1\Animal2\Wednesday\Animal2.ASF
:FULLY-SPECIFIED
:DEGREES
1
root 10.3591 16.6607 -10.1788 159.189 -86.9045 -162.982
lowerback 5.59919 -2.15363 1.8946
upperback -0.881732 -2.72846 0.335934
thorax -4.12262 -1.39566 -0.465613
lowerneck 3.6283 7.85748 16.611
upperneck -1.8876 11.0043 -18.1614
head 0.842207 5.62043 -8.15475
rclavicle -1.86982e-014 -8.94531e-016
rhumerus -54.1851 59.967 -90.1124
rradius 74.5458
rwrist 28.7787
rhand 11.7219 34.826
rfingers 7.12502
rthumb 36.7576 8.69924
lclavicle -1.86982e-014 -8.94531e-016
lhumerus -72.6871 -49.1286 103.92
lradius 56.2124
lwrist -10.6214
lhand -7.31896 -0.0645379
lfingers 7.12502
lthumb 18.564 29.0697
rfemur -12.8796 -17.1574 21.3243
rtibia 51.1784
rfoot -34.8477 -1.12125
rtoes 27.5774
lfemur -16.5129 28.8096 -17.1999
ltibia 53.3111
lfoot -31.5351 6.08952
ltoes -0.503069
2
root 10.3508 16.7297 -10.1817 152.855 -86.4847 -156.387
lowerback 5.26519 -2.07178 2.37948
upperback -1.12374 -2.58549 0.531186
thorax -4.19501 -1.33689 -0.555068
lowerneck 2.87637 7.84691 16.0275
upperneck -0.797807 10.9699 -17.4549
head 1.19499 5.5609 -7.77471
rclavicle -5.09386e-015 -1.21259e-014
rhumerus -55.0409 59.3361 -91.1576
rradius 73.4529
rwrist 28.3823
rhand 12.1069 33.1496
rfingers 7.12502
rthumb 37.1219 7.11669
lclavicle -5.09386e-015 -1.21259e-014
lhumerus -72.7582 -49.1128 104.388
lradius 56.1751
lwrist -10.3119
lhand -7.40193 0.647842
lfingers 7.12502
lthumb 18.4842 29.7896
rfemur -12.5364 -16.7049 22.0205
rtibia 49.8505
rfoot -34.2623 -1.04544
rtoes 29.0364
lfemur -16.3847 28.3996 -16.8185
ltibia 52.5022
lfoot -30.8011 7.53843
ltoes -3.62453
3
root 10.3368 16.796 -10.1895 153.664 -86.422 -157.151
lowerback 4.96107 -2.05446 2.40702
upperback -1.2259 -2.56832 0.5362
thorax -4.1298 -1.32961 -0.575984
lowerneck 2.56041 7.83557 15.8404
upperneck -0.342178 10.9489 -17.4332
head 1.36281 5.53192 -7.71492
rclavicle -1.49089e-014 1.09332e-014
rhumerus -55.6313 58.8412 -91.9184
rradius 72.6281
rwrist 28.4137
rhand 12.2095 32.6936
rfingers 7.12502
rthumb 37.2188 6.68601
lclavicle -1.49089e-014 1.09332e-014
lhumerus -72.8738 -49.1675 104.767
lradius 56.4047
lwrist -9.95897
lhand -7.51349 1.32886
lfingers 7.12502
lthumb 18.3769 30.4808
rfemur -11.8802 -16.4947 22.0027
rtibia 48.5656
rfoot -33.9063 -1.58616
rtoes 28.01
lfemur -15.8657 27.9391 -16.8962
ltibia 51.5238
lfoot -30.7744 7.92054
ltoes -3.4935
4
root 10.3221 16.8566 -10.1976 155.608 -86.5143 -158.956
lowerback 4.48303 -2.00728 2.33002
upperback -1.30546 -2.52497 0.494546
thorax -3.93932 -1.3063 -0.59589
lowerneck 2.8209 7.78198 15.9767
upperneck -0.684767 10.8813 -17.7965
head 1.24 5.51172 -7.87722
rclavicle -1.39149e-015 -9.93923e-016
rhumerus -55.9233 58.0987 -92.2396
rradius 71.8424
rwrist 28.4998
rhand 12.3763 32.7658
rfingers 7.12502
rthumb 37.3765 6.79962
lclavicle -1.39149e-015 -9.93923e-016
lhumerus -72.6464 -49.2382 104.936
lradius 56.4305
lwrist -9.83788
lhand -7.39523 1.93771
lfingers 7.12502
lthumb 18.4907 31.0789
rfemur -11.2994 -16.3312 21.9012
rtibia 47.2701
rfoot -33.4914 -2.21841
rtoes 26.6912
lfemur -15.4753 27.4801 -17.1703
ltibia 50.5757
lfoot -30.6777 8.07212
ltoes -3.68211
5
root 10.312 16.9173 -10.2042 152.777 -86.4999 -155.89
lowerback 4.09381 -1.9877 2.57778
upperback -1.52397 -2.49374 0.523259
thorax -3.95489 -1.2993 -0.716248
lowerneck 3.2965 7.77871 15.6529
upperneck -1.15489 10.8759 -17.3656
head 0.979958 5.53285 -7.71881
rclavicle -2.34442e-014 5.1684e-015
rhumerus -56.4176 57.226 -92.8474
rradius 70.9421
rwrist 28.523
rhand 12.6376 32.5462
rfingers 7.12502
rthumb 37.6236 6.64552
lclavicle -2.34442e-014 5.1684e-015
lhumerus -72.4378 -49.1329 105.038
lradius 56.2289
lwrist -9.98968
lhand -7.02941 2.23946
lfingers 7.12502
lthumb 18.8425 31.3468
rfemur -10.8569 -16.0471 22.2596
rtibia 45.9919
rfoot -32.7831 -2.07858
rtoes 28.0859
lfemur -15.2283 26.9048 -17.1553
ltibia 49.5867
lfoot -29.6981 8.79844
ltoes -4.7917
6
root 10.3027 16.9807 -10.2153 153.086 -86.5333 -155.935
lowerback 3.77039 -2.00895 2.64183
upperback -1.8301 -2.52942 0.425363
thorax -4.09831 -1.32485 -0.854655
lowerneck 3.18999 7.79794 15.5053
upperneck -0.707459 10.9256 -16.8013
head 1.09076 5.54947 -7.49757
rclavicle -3.59055e-014 1.2921e-014
rhumerus -57.1271 56.5902 -94.0418
rradius 69.7692
rwrist 28.6547
rhand 12.2474 32.4866
rfingers 7.12502
rthumb 37.2547 6.48844
lclavicle -3.59055e-014 1.2921e-014
lhumerus -72.3864 -48.9307 104.98
lradius 56.0522
lwrist -10.1989
lhand -6.77517 2.24928
lfingers 7.12502
lthumb 19.087 31.3327
rfemur -10.4787 -15.6056 22.4316
rtibia 44.7358
rfoot -32.1039 -1.6608
rtoes 30.5204
lfemur -15.0164 26.2378 -17.3541
ltibia 48.5877
lfoot -28.726 9.6602
ltoes -5.05129
7
root 10.2913 17.0438 -10.2253 157.698 -86.6368 -160.334
lowerback 3.40918 -2.02796 2.43156
upperback -2.05094 -2.58135 0.262731
thorax -4.12276 -1.35028 -0.909281
lowerneck 2.87073 7.84832 15.7789
upperneck -0.0427167 11.0279 -16.749
head 1.36383 5.58411 -7.49037
rclavicle 2.65874e-015 -9.93923e-017
rhumerus -57.5771 56.0637 -94.9753
rradius 68.5708
rwrist 28.8105
rhand 11.6404 32.7217
rfingers 7.12502
rthumb 36.6805 6.57534
lclavicle 2.65874e-015 -9.93923e-017
lhumerus -72.0794 -48.6595 104.706
lradius 55.8994
lwrist -10.3352
lhand -6.76578 2.23511
lfingers 7.12502
lthumb 19.0961 31.3176
rfemur -10.0493 -15.038 22.2819
rtibia 43.4993
rfoot -31.7268 -1.55026
rtoes 31.9715
lfemur -14.7144 25.7 -17.7991
ltibia 47.6155
lfoot -28.3369 9.89494
ltoes -4.41524
8
root 10.281 17.0972 -10.2283 154.519 -86.6281 -157.056
lowerback 3.14228 -2.03343 2.70428
upperback -2.17968 -2.58278 0.289201
thorax -4.11698 -1.36055 -1.04094
lowerneck 2.77959 7.93267 15.7648
upperneck 0.174573 11.1499 -16.64
head 1.45417 5.63984 -7.43712
rclavicle 3.73591e-014 -3.77691e-015
rhumerus -57.7744 55.3985 -95.4038
rradius 67.4942
rwrist 28.8355
rhand 11.6218 32.7716
rfingers 7.12502
rthumb 36.6629 6.62075
lclavicle 3.73591e-014 -3.77691e-015
lhumerus -71.7753 -48.5903 104.767
lradius 55.7122
lwrist -10.227
lhand -6.88783 2.4215
lfingers 7.12502
lthumb 18.9787 31.5156
rfemur -9.49216 -14.6543 22.5761
rtibia 42.3093
rfoot -31.388 -1.87331
rtoes 31.9726
lfemur -14.2934 25.157 -17.681
ltibia 46.682
lfoot -28.0726 9.93388
ltoes -3.43645
9
root 10.273 17.1446 -10.2326 148.566 -86.491 -150.961
lowerback 2.83596 -1.99534 3.16776
upperback -2.29661 -2.51862 0.384788
thorax -4.07951 -1.34276 -1.21395
lowerneck 2.66527 7.9517 15.5915
upperneck 0.284069 11.1625 -16.4649
head 1.486 5.64009 -7.34519
rclavicle 1.09953e-014 2.08724e-015
rhumerus -57.8913 54.6993 -95.7843
rradius 66.3772
rwrist 28.617
rhand 11.8864 32.3545
rfingers 7.12502
rthumb 36.9133 6.26767
lclavicle 1.09953e-014 2.08724e-015
lhumerus -71.5493 -48.7641 105.053
lradius 55.462
lwrist -9.94988
lhand -7.01426 2.62548
lfingers 7.12502
lthumb 18.8571 31.7314
rfemur -9.03493 -14.4761 23.0759
rtibia 41.1981
rfoot -30.8421 -2.11525
rtoes 31.8896
lfemur -13.9722 24.5206 -17.3705
ltibia 45.8044
lfoot -27.8791 10.0911
ltoes -1.92307
